<svg width="24" height="24" viewBox="0 0 24 24" fill="none" xmlns="http://www.w3.org/2000/svg">
<g clip-path="url(#clip0_2449_36878)">
<path fill-rule="evenodd" clip-rule="evenodd" d="M13.228 2.68799C12.8769 2.41488 12.4448 2.2666 12 2.2666C11.5552 2.2666 11.1231 2.41488 10.772 2.68799L2.38801 9.20799C1.63601 9.79499 2.05001 11 3.00301 11H4.00001V19C4.00001 19.5304 4.21073 20.0391 4.5858 20.4142C4.96087 20.7893 5.46958 21 6.00001 21H18C18.5304 21 19.0392 20.7893 19.4142 20.4142C19.7893 20.0391 20 19.5304 20 19V11H20.997C21.949 11 22.365 9.79499 21.612 9.20899L13.228 2.68799ZM13 19V13C13 12.7348 12.8947 12.4804 12.7071 12.2929C12.5196 12.1053 12.2652 12 12 12C11.7348 12 11.4804 12.1053 11.2929 12.2929C11.1054 12.4804 11 12.7348 11 13V19H6.00001V10.01C6.00001 9.69299 5.85401 9.40999 5.62501 9.22499L12 4.26699L18.375 9.22499C18.2579 9.31953 18.1634 9.43911 18.0985 9.57495C18.0336 9.71079 17.9999 9.85944 18 10.01V19H13Z" fill="#333333"/>
</g>
<defs>
<clipPath id="clip0_2449_36878">
<rect width="24" height="24" fill="white"/>
</clipPath>
</defs>
</svg>
